<svg width="1440" height="202" viewBox="0 0 1440 202" fill="none" xmlns="http://www.w3.org/2000/svg">
<rect width="1440" height="202" fill="white"/>
<path d="M648.456 74.168C646.872 74.168 645.416 73.8 644.088 73.064C642.776 72.328 641.728 71.304 640.944 69.992C640.176 68.664 639.792 67.176 639.792 65.528C639.792 63.88 640.176 62.4 640.944 61.088C641.728 59.776 642.776 58.752 644.088 58.016C645.416 57.28 646.872 56.912 648.456 56.912C650.04 56.912 651.488 57.28 652.8 58.016C654.128 58.752 655.168 59.776 655.92 61.088C656.688 62.4 657.072 63.88 657.072 65.528C657.072 67.176 656.688 68.664 655.92 69.992C655.152 71.304 654.112 72.328 652.8 73.064C651.488 73.8 650.04 74.168 648.456 74.168ZM648.456 70.424C649.8 70.424 650.872 69.976 651.672 69.08C652.488 68.184 652.896 67 652.896 65.528C652.896 64.04 652.488 62.856 651.672 61.976C650.872 61.08 649.8 60.632 648.456 60.632C647.096 60.632 646.008 61.072 645.192 61.952C644.392 62.832 643.992 64.024 643.992 65.528C643.992 67.016 644.392 68.208 645.192 69.104C646.008 69.984 647.096 70.424 648.456 70.424ZM672.579 60.608V74H668.475V72.176C668.059 72.768 667.491 73.248 666.771 73.616C666.067 73.968 665.283 74.144 664.419 74.144C663.395 74.144 662.491 73.92 661.707 73.472C660.923 73.008 660.315 72.344 659.883 71.48C659.451 70.616 659.235 69.6 659.235 68.432V60.608H663.315V67.88C663.315 68.776 663.547 69.472 664.011 69.968C664.475 70.464 665.099 70.712 665.883 70.712C666.683 70.712 667.315 70.464 667.779 69.968C668.243 69.472 668.475 68.776 668.475 67.88V60.608H672.579ZM679.631 62.84C680.111 62.104 680.711 61.528 681.431 61.112C682.151 60.68 682.951 60.464 683.831 60.464V64.808H682.703C681.679 64.808 680.911 65.032 680.399 65.48C679.887 65.912 679.631 66.68 679.631 67.784V74H675.527V60.608H679.631V62.84ZM708.805 62.576C708.805 63.552 708.581 64.448 708.133 65.264C707.685 66.064 706.997 66.712 706.069 67.208C705.141 67.704 703.989 67.952 702.613 67.952H700.069V74H695.965V57.152H702.613C703.957 57.152 705.093 57.384 706.021 57.848C706.949 58.312 707.645 58.952 708.109 59.768C708.573 60.584 708.805 61.52 708.805 62.576ZM702.301 64.688C703.085 64.688 703.669 64.504 704.053 64.136C704.437 63.768 704.629 63.248 704.629 62.576C704.629 61.904 704.437 61.384 704.053 61.016C703.669 60.648 703.085 60.464 702.301 60.464H700.069V64.688H702.301ZM710.125 67.28C710.125 65.904 710.381 64.696 710.893 63.656C711.421 62.616 712.133 61.816 713.029 61.256C713.925 60.696 714.925 60.416 716.029 60.416C716.973 60.416 717.797 60.608 718.501 60.992C719.221 61.376 719.773 61.88 720.157 62.504V60.608H724.261V74H720.157V72.104C719.757 72.728 719.197 73.232 718.477 73.616C717.773 74 716.949 74.192 716.005 74.192C714.917 74.192 713.925 73.912 713.029 73.352C712.133 72.776 711.421 71.968 710.893 70.928C710.381 69.872 710.125 68.656 710.125 67.28ZM720.157 67.304C720.157 66.28 719.869 65.472 719.293 64.88C718.733 64.288 718.045 63.992 717.229 63.992C716.413 63.992 715.717 64.288 715.141 64.88C714.581 65.456 714.301 66.256 714.301 67.28C714.301 68.304 714.581 69.12 715.141 69.728C715.717 70.32 716.413 70.616 717.229 70.616C718.045 70.616 718.733 70.32 719.293 69.728C719.869 69.136 720.157 68.328 720.157 67.304ZM731.334 62.84C731.814 62.104 732.414 61.528 733.134 61.112C733.854 60.68 734.654 60.464 735.534 60.464V64.808H734.406C733.382 64.808 732.614 65.032 732.102 65.48C731.59 65.912 731.334 66.68 731.334 67.784V74H727.23V60.608H731.334V62.84ZM744.96 70.52V74H742.872C741.384 74 740.224 73.64 739.392 72.92C738.56 72.184 738.144 70.992 738.144 69.344V64.016H736.512V60.608H738.144V57.344H742.248V60.608H744.936V64.016H742.248V69.392C742.248 69.792 742.344 70.08 742.536 70.256C742.728 70.432 743.048 70.52 743.496 70.52H744.96ZM755.406 60.464C756.974 60.464 758.222 60.976 759.15 62C760.094 63.008 760.566 64.4 760.566 66.176V74H756.486V66.728C756.486 65.832 756.254 65.136 755.79 64.64C755.326 64.144 754.702 63.896 753.918 63.896C753.134 63.896 752.51 64.144 752.046 64.64C751.582 65.136 751.35 65.832 751.35 66.728V74H747.246V60.608H751.35V62.384C751.766 61.792 752.326 61.328 753.03 60.992C753.734 60.64 754.526 60.464 755.406 60.464ZM776.042 67.088C776.042 67.472 776.018 67.872 775.97 68.288H766.682C766.746 69.12 767.01 69.76 767.474 70.208C767.954 70.64 768.538 70.856 769.226 70.856C770.25 70.856 770.962 70.424 771.362 69.56H775.73C775.506 70.44 775.098 71.232 774.506 71.936C773.93 72.64 773.202 73.192 772.322 73.592C771.442 73.992 770.458 74.192 769.37 74.192C768.058 74.192 766.89 73.912 765.866 73.352C764.842 72.792 764.042 71.992 763.466 70.952C762.89 69.912 762.602 68.696 762.602 67.304C762.602 65.912 762.882 64.696 763.442 63.656C764.018 62.616 764.818 61.816 765.842 61.256C766.866 60.696 768.042 60.416 769.37 60.416C770.666 60.416 771.818 60.688 772.826 61.232C773.834 61.776 774.618 62.552 775.178 63.56C775.754 64.568 776.042 65.744 776.042 67.088ZM771.842 66.008C771.842 65.304 771.602 64.744 771.122 64.328C770.642 63.912 770.042 63.704 769.322 63.704C768.634 63.704 768.05 63.904 767.57 64.304C767.106 64.704 766.818 65.272 766.706 66.008H771.842ZM782.311 62.84C782.791 62.104 783.391 61.528 784.111 61.112C784.831 60.68 785.631 60.464 786.511 60.464V64.808H785.383C784.359 64.808 783.591 65.032 783.079 65.48C782.567 65.912 782.311 66.68 782.311 67.784V74H778.207V60.608H782.311V62.84ZM793.92 74.192C792.752 74.192 791.712 73.992 790.8 73.592C789.888 73.192 789.168 72.648 788.64 71.96C788.112 71.256 787.816 70.472 787.752 69.608H791.808C791.856 70.072 792.072 70.448 792.456 70.736C792.84 71.024 793.312 71.168 793.872 71.168C794.384 71.168 794.776 71.072 795.048 70.88C795.336 70.672 795.48 70.408 795.48 70.088C795.48 69.704 795.28 69.424 794.88 69.248C794.48 69.056 793.832 68.848 792.936 68.624C791.976 68.4 791.176 68.168 790.536 67.928C789.896 67.672 789.344 67.28 788.88 66.752C788.416 66.208 788.184 65.48 788.184 64.568C788.184 63.8 788.392 63.104 788.808 62.48C789.24 61.84 789.864 61.336 790.68 60.968C791.512 60.6 792.496 60.416 793.632 60.416C795.312 60.416 796.632 60.832 797.592 61.664C798.568 62.496 799.128 63.6 799.272 64.976H795.48C795.416 64.512 795.208 64.144 794.856 63.872C794.52 63.6 794.072 63.464 793.512 63.464C793.032 63.464 792.664 63.56 792.408 63.752C792.152 63.928 792.024 64.176 792.024 64.496C792.024 64.88 792.224 65.168 792.624 65.36C793.04 65.552 793.68 65.744 794.544 65.936C795.536 66.192 796.344 66.448 796.968 66.704C797.592 66.944 798.136 67.344 798.6 67.904C799.08 68.448 799.328 69.184 799.344 70.112C799.344 70.896 799.12 71.6 798.672 72.224C798.24 72.832 797.608 73.312 796.776 73.664C795.96 74.016 795.008 74.192 793.92 74.192Z" fill="black" fill-opacity="0.5"/>
<path fill-rule="evenodd" clip-rule="evenodd" d="M119.107 110.459L119.088 110.426H111.041L101.508 126.768L108.052 138.218L108.06 138.204L110.533 142.489L129.453 142.574L136.097 131.182H136.053L138.507 126.93L129.121 110.503L119.107 110.459ZM125.332 121.358H125.382L120.652 113.142L127.564 113.173L135.421 126.924L132.962 131.183L126.517 131.187L128.764 127.295L125.332 121.358ZM117.468 113.102L120.694 118.682L116.228 118.682L108.582 131.94L108.061 132.841L104.598 126.782L112.578 113.102H117.468ZM114.367 127.265L117.774 121.358L122.241 121.358L125.673 127.296L123.426 131.188L116.634 131.192L114.367 127.265ZM109.604 135.527L110.9 133.279L112.827 129.95L115.089 133.869L121.88 133.865L121.869 133.884L131.416 133.896L127.92 139.891L112.082 139.82L109.604 135.527Z" fill="black" fill-opacity="0.8"/>
<path d="M187.246 120.219C188.162 120.219 188.907 119.474 188.907 118.539C188.907 117.603 188.162 116.878 187.246 116.878C186.311 116.878 185.566 117.603 185.566 118.539C185.566 119.474 186.311 120.219 187.246 120.219ZM185.757 131.253H188.716V121.708H185.757V131.253Z" fill="black" fill-opacity="0.5"/>
<path d="M190.438 135.835H193.34V130.299C193.894 131.024 195.154 131.521 196.471 131.521C199.316 131.521 201.034 129.344 200.958 126.328C200.881 123.254 199.106 121.402 196.452 121.402C195.097 121.402 193.818 121.994 193.283 122.872L193.13 121.708H190.438V135.835ZM193.398 126.481C193.398 125.049 194.352 124.094 195.727 124.094C197.12 124.094 197.999 125.068 197.999 126.481C197.999 127.893 197.12 128.867 195.727 128.867C194.352 128.867 193.398 127.912 193.398 126.481Z" fill="black" fill-opacity="0.5"/>
<path d="M201.271 128.237C201.347 130.165 202.875 131.501 205.28 131.501C207.59 131.501 209.194 130.28 209.194 128.313C209.194 126.901 208.354 125.965 206.788 125.583L205.089 125.163C204.478 125.011 204.096 124.858 204.096 124.361C204.096 123.865 204.497 123.541 205.089 123.541C205.757 123.541 206.196 123.98 206.177 124.629H208.831C208.755 122.643 207.246 121.402 205.146 121.402C203.027 121.402 201.443 122.662 201.443 124.571C201.443 125.851 202.149 126.901 204.039 127.397L205.719 127.836C206.215 127.97 206.425 128.199 206.425 128.523C206.425 129.001 205.986 129.306 205.242 129.306C204.383 129.306 203.925 128.905 203.925 128.237H201.271Z" fill="black" fill-opacity="0.5"/>
<path d="M213.694 131.502C214.858 131.502 216.023 130.967 216.615 130.184L216.806 131.253H219.574V121.708H216.634V126.672C216.634 128.103 216.214 128.886 214.858 128.886C213.808 128.886 213.121 128.409 213.121 126.633V121.708H210.181V127.703C210.181 129.974 211.441 131.502 213.694 131.502Z" fill="black" fill-opacity="0.5"/>
<path d="M224.236 131.253V126.042C224.236 124.438 225.095 123.98 225.935 123.98C226.871 123.98 227.482 124.552 227.482 125.736V131.253H230.383V126.042C230.383 124.419 231.223 123.961 232.063 123.961C232.999 123.961 233.629 124.533 233.629 125.736V131.253H236.492V125.011C236.492 122.834 235.347 121.383 232.884 121.383C231.51 121.383 230.383 122.052 229.887 123.082C229.314 122.052 228.322 121.383 226.737 121.383C225.687 121.383 224.713 121.861 224.141 122.624L224.026 121.708H221.277V131.253H224.236Z" fill="black" fill-opacity="0.5"/>
<path d="M146.924 117.127H143.793V131.255H152.461V128.487H146.924V117.127Z" fill="black" fill-opacity="0.8"/>
<path d="M152.76 126.463C152.76 129.479 154.783 131.484 157.838 131.484C160.873 131.484 162.897 129.479 162.897 126.463C162.897 123.447 160.873 121.423 157.838 121.423C154.783 121.423 152.76 123.447 152.76 126.463ZM155.719 126.444C155.719 125.012 156.559 124.057 157.838 124.057C159.098 124.057 159.938 125.012 159.938 126.444C159.938 127.895 159.098 128.849 157.838 128.849C156.559 128.849 155.719 127.895 155.719 126.444Z" fill="black" fill-opacity="0.8"/>
<path d="M163.37 126.31C163.37 129.193 165.241 131.14 167.894 131.14C169.173 131.14 170.281 130.682 170.834 129.937V131.255C170.834 132.572 170.013 133.45 168.563 133.45C167.264 133.45 166.367 132.839 166.31 131.751H163.332C163.599 134.367 165.623 136.123 168.391 136.123C171.655 136.123 173.717 134.004 173.717 130.644V121.709H171.063L170.911 122.683C170.376 121.9 169.25 121.385 167.952 121.385C165.279 121.385 163.37 123.389 163.37 126.31ZM166.348 126.234C166.348 124.859 167.264 123.943 168.429 123.943C169.784 123.943 170.777 124.84 170.777 126.234C170.777 127.627 169.803 128.582 168.448 128.582C167.283 128.582 166.348 127.627 166.348 126.234Z" fill="black" fill-opacity="0.8"/>
<path d="M174.574 126.463C174.574 129.479 176.598 131.484 179.652 131.484C182.688 131.484 184.711 129.479 184.711 126.463C184.711 123.447 182.688 121.423 179.652 121.423C176.598 121.423 174.574 123.447 174.574 126.463ZM177.533 126.444C177.533 125.012 178.373 124.057 179.652 124.057C180.912 124.057 181.752 125.012 181.752 126.444C181.752 127.895 180.912 128.849 179.652 128.849C178.373 128.849 177.533 127.895 177.533 126.444Z" fill="black" fill-opacity="0.8"/>
<path d="M356.709 132.191C356.709 132.934 356.557 133.504 356.252 133.902C355.956 134.301 355.459 134.5 354.764 134.5C354.108 134.5 353.643 134.301 353.369 133.902C353.104 133.504 352.971 132.934 352.971 132.191V119.805C352.971 119.063 353.104 118.492 353.369 118.094C353.643 117.695 354.108 117.496 354.764 117.496C355.459 117.496 355.956 117.695 356.252 118.094C356.557 118.492 356.709 119.063 356.709 119.805V132.191Z" fill="black" fill-opacity="0.8"/>
<path d="M357.844 128.594C357.844 127.766 357.977 126.984 358.243 126.25C358.516 125.508 358.922 124.859 359.461 124.305C360.008 123.75 360.688 123.309 361.501 122.98C362.321 122.652 363.282 122.488 364.383 122.488C365.438 122.488 366.372 122.641 367.184 122.945C367.997 123.25 368.68 123.676 369.235 124.223C369.79 124.762 370.211 125.406 370.501 126.156C370.79 126.898 370.934 127.711 370.934 128.594C370.934 129.414 370.797 130.191 370.524 130.926C370.251 131.652 369.84 132.293 369.293 132.848C368.747 133.394 368.063 133.832 367.243 134.16C366.422 134.48 365.469 134.641 364.383 134.641C363.313 134.641 362.368 134.488 361.547 134.184C360.735 133.871 360.051 133.445 359.497 132.906C358.95 132.359 358.536 131.719 358.254 130.984C357.981 130.242 357.844 129.445 357.844 128.594ZM361.747 128.594C361.747 129.109 361.793 129.602 361.887 130.07C361.981 130.531 362.129 130.937 362.333 131.289C362.543 131.641 362.817 131.922 363.153 132.133C363.489 132.336 363.899 132.437 364.383 132.437C364.829 132.437 365.215 132.344 365.543 132.156C365.879 131.969 366.153 131.707 366.364 131.371C366.583 131.035 366.747 130.633 366.856 130.164C366.965 129.687 367.02 129.164 367.02 128.594C367.02 128.078 366.969 127.59 366.868 127.129C366.774 126.66 366.622 126.25 366.411 125.898C366.2 125.539 365.926 125.258 365.59 125.055C365.262 124.844 364.86 124.738 364.383 124.738C363.907 124.738 363.501 124.84 363.165 125.043C362.829 125.246 362.555 125.523 362.344 125.875C362.133 126.227 361.981 126.637 361.887 127.105C361.793 127.574 361.747 128.07 361.747 128.594Z" fill="black" fill-opacity="0.8"/>
<path d="M380.553 132.238C380.342 132.629 380.085 132.961 379.78 133.234C379.483 133.508 379.151 133.734 378.784 133.914C378.424 134.086 378.038 134.215 377.624 134.301C377.217 134.379 376.799 134.418 376.37 134.418C375.651 134.418 374.995 134.289 374.401 134.031C373.807 133.773 373.296 133.402 372.866 132.918C372.444 132.426 372.116 131.824 371.881 131.113C371.647 130.402 371.53 129.59 371.53 128.676C371.53 127.816 371.639 127.012 371.858 126.262C372.077 125.512 372.393 124.859 372.807 124.305C373.229 123.75 373.745 123.313 374.354 122.992C374.963 122.672 375.659 122.512 376.44 122.512C377.331 122.512 378.12 122.684 378.807 123.027C379.503 123.371 380.1 123.934 380.6 124.715V124.41C380.6 123.848 380.753 123.426 381.057 123.145C381.37 122.856 381.799 122.711 382.346 122.711C382.674 122.711 382.952 122.766 383.178 122.875C383.405 122.977 383.585 123.133 383.717 123.344C383.85 123.547 383.944 123.801 383.999 124.106C384.061 124.402 384.092 124.742 384.092 125.125V132.977C384.092 133.93 383.971 134.781 383.729 135.531C383.495 136.281 383.128 136.914 382.628 137.43C382.128 137.945 381.487 138.336 380.706 138.602C379.924 138.875 378.995 139.012 377.917 139.012C377.159 139.012 376.487 138.977 375.901 138.906C375.323 138.844 374.823 138.746 374.401 138.613C373.979 138.465 373.659 138.301 373.44 138.121C373.229 137.941 373.124 137.707 373.124 137.418C373.124 137.254 373.147 137.098 373.194 136.949C373.241 136.801 373.311 136.668 373.405 136.551C373.506 136.441 373.635 136.352 373.792 136.281C373.956 136.219 374.155 136.188 374.389 136.188C374.639 136.188 374.889 136.203 375.139 136.234C375.397 136.266 375.663 136.297 375.936 136.328C376.217 136.367 376.51 136.402 376.815 136.434C377.128 136.465 377.463 136.481 377.823 136.481C378.253 136.481 378.635 136.438 378.971 136.352C379.307 136.266 379.592 136.113 379.827 135.895C380.061 135.676 380.241 135.383 380.366 135.016C380.491 134.656 380.553 134.195 380.553 133.633V132.238ZM380.553 128.594C380.553 128.023 380.51 127.504 380.424 127.035C380.346 126.566 380.21 126.168 380.014 125.84C379.819 125.504 379.557 125.246 379.229 125.066C378.901 124.879 378.491 124.785 377.999 124.785C377.514 124.785 377.112 124.883 376.792 125.078C376.479 125.273 376.229 125.543 376.042 125.887C375.854 126.231 375.721 126.633 375.643 127.094C375.573 127.555 375.538 128.047 375.538 128.57C375.538 129.766 375.749 130.664 376.171 131.266C376.592 131.867 377.206 132.168 378.01 132.168C378.385 132.16 378.725 132.09 379.03 131.957C379.342 131.816 379.612 131.602 379.838 131.313C380.065 131.023 380.241 130.656 380.366 130.211C380.491 129.766 380.553 129.227 380.553 128.594Z" fill="black" fill-opacity="0.8"/>
<path d="M385.169 128.594C385.169 127.766 385.301 126.984 385.567 126.25C385.841 125.508 386.247 124.859 386.786 124.305C387.333 123.75 388.012 123.309 388.825 122.98C389.645 122.652 390.606 122.488 391.708 122.488C392.762 122.488 393.696 122.641 394.508 122.945C395.321 123.25 396.005 123.676 396.559 124.223C397.114 124.762 397.536 125.406 397.825 126.156C398.114 126.898 398.258 127.711 398.258 128.594C398.258 129.414 398.122 130.191 397.848 130.926C397.575 131.652 397.165 132.293 396.618 132.848C396.071 133.394 395.387 133.832 394.567 134.16C393.747 134.48 392.794 134.641 391.708 134.641C390.637 134.641 389.692 134.488 388.872 134.184C388.059 133.871 387.376 133.445 386.821 132.906C386.274 132.359 385.86 131.719 385.579 130.984C385.305 130.242 385.169 129.445 385.169 128.594ZM389.071 128.594C389.071 129.109 389.118 129.602 389.212 130.07C389.305 130.531 389.454 130.937 389.657 131.289C389.868 131.641 390.141 131.922 390.477 132.133C390.813 132.336 391.223 132.437 391.708 132.437C392.153 132.437 392.54 132.344 392.868 132.156C393.204 131.969 393.477 131.707 393.688 131.371C393.907 131.035 394.071 130.633 394.18 130.164C394.29 129.687 394.344 129.164 394.344 128.594C394.344 128.078 394.294 127.59 394.192 127.129C394.098 126.66 393.946 126.25 393.735 125.898C393.524 125.539 393.251 125.258 392.915 125.055C392.587 124.844 392.184 124.738 391.708 124.738C391.231 124.738 390.825 124.84 390.489 125.043C390.153 125.246 389.88 125.523 389.669 125.875C389.458 126.227 389.305 126.637 389.212 127.105C389.118 127.574 389.071 128.07 389.071 128.594Z" fill="black" fill-opacity="0.8"/>
<path d="M403.284 118.539C403.284 118.797 403.225 119.027 403.108 119.23C402.991 119.426 402.839 119.59 402.651 119.723C402.464 119.856 402.245 119.957 401.995 120.027C401.753 120.09 401.503 120.121 401.245 120.121C400.971 120.121 400.71 120.086 400.46 120.016C400.218 119.945 400.003 119.844 399.815 119.711C399.628 119.57 399.479 119.402 399.37 119.207C399.261 119.012 399.206 118.789 399.206 118.539C399.206 118.312 399.257 118.105 399.358 117.918C399.468 117.723 399.612 117.555 399.792 117.414C399.971 117.273 400.186 117.164 400.436 117.086C400.686 117.008 400.96 116.969 401.257 116.969C401.514 116.969 401.764 117.004 402.007 117.074C402.257 117.145 402.475 117.246 402.663 117.379C402.85 117.512 402.999 117.676 403.108 117.871C403.225 118.066 403.284 118.289 403.284 118.539ZM403.108 132.191C403.108 132.934 402.956 133.504 402.651 133.902C402.354 134.301 401.858 134.5 401.163 134.5C400.507 134.5 400.042 134.301 399.768 133.902C399.503 133.504 399.37 132.934 399.37 132.191V125.019C399.37 124.277 399.503 123.707 399.768 123.309C400.042 122.91 400.507 122.711 401.163 122.711C401.858 122.711 402.354 122.91 402.651 123.309C402.956 123.707 403.108 124.277 403.108 125.019V132.191Z" fill="black" fill-opacity="0.8"/>
<path d="M408.497 128.57C408.497 129.094 408.536 129.582 408.614 130.035C408.7 130.488 408.841 130.887 409.036 131.231C409.239 131.566 409.505 131.832 409.833 132.027C410.169 132.223 410.583 132.32 411.075 132.32C411.528 132.32 411.907 132.227 412.212 132.039C412.524 131.844 412.774 131.578 412.962 131.242C413.149 130.898 413.282 130.496 413.36 130.035C413.446 129.574 413.489 129.074 413.489 128.535C413.489 128.106 413.458 127.668 413.395 127.223C413.333 126.77 413.216 126.359 413.044 125.992C412.872 125.625 412.634 125.324 412.329 125.09C412.024 124.856 411.626 124.738 411.134 124.738C410.641 124.738 410.223 124.816 409.88 124.973C409.544 125.129 409.27 125.367 409.059 125.688C408.856 126.008 408.712 126.41 408.626 126.895C408.54 127.371 408.497 127.93 408.497 128.57ZM408.485 125.02C408.68 124.606 408.93 124.242 409.235 123.93C409.54 123.617 409.876 123.356 410.243 123.145C410.61 122.934 410.993 122.777 411.391 122.676C411.798 122.566 412.2 122.512 412.598 122.512C413.317 122.512 413.966 122.672 414.544 122.992C415.122 123.313 415.614 123.75 416.02 124.305C416.434 124.852 416.751 125.5 416.97 126.25C417.188 126.992 417.298 127.789 417.298 128.641C417.298 129.523 417.18 130.332 416.946 131.066C416.72 131.801 416.395 132.434 415.973 132.965C415.559 133.488 415.059 133.898 414.473 134.195C413.895 134.492 413.251 134.641 412.54 134.641C411.665 134.641 410.884 134.438 410.196 134.031C409.509 133.625 408.938 133.055 408.485 132.32V136.539C408.485 137.281 408.333 137.852 408.028 138.25C407.731 138.648 407.235 138.848 406.54 138.848C405.884 138.848 405.419 138.648 405.145 138.25C404.88 137.852 404.747 137.281 404.747 136.539V125.02C404.747 124.277 404.88 123.707 405.145 123.309C405.419 122.91 405.884 122.711 406.54 122.711C407.235 122.711 407.731 122.91 408.028 123.309C408.333 123.707 408.485 124.277 408.485 125.02Z" fill="black" fill-opacity="0.8"/>
<path d="M421.421 125.852C421.421 126.156 421.554 126.394 421.819 126.566C422.085 126.73 422.452 126.867 422.921 126.977C423.366 127.078 423.823 127.176 424.292 127.269C424.761 127.363 425.218 127.473 425.663 127.598C426.108 127.715 426.526 127.855 426.917 128.019C427.307 128.184 427.651 128.391 427.948 128.641C428.245 128.883 428.479 129.18 428.651 129.531C428.823 129.875 428.909 130.289 428.909 130.773C428.909 131.383 428.784 131.926 428.534 132.402C428.284 132.871 427.929 133.269 427.468 133.598C427.015 133.926 426.472 134.18 425.839 134.359C425.206 134.539 424.507 134.633 423.741 134.641C423.015 134.641 422.315 134.594 421.643 134.5C420.972 134.414 420.374 134.277 419.85 134.09C419.335 133.902 418.921 133.672 418.608 133.398C418.296 133.117 418.14 132.789 418.14 132.414C418.14 132.086 418.245 131.832 418.456 131.652C418.667 131.473 418.936 131.383 419.265 131.383C419.39 131.383 419.538 131.406 419.71 131.453C419.882 131.5 420.069 131.559 420.272 131.629C420.475 131.699 420.69 131.777 420.917 131.863C421.151 131.941 421.393 132.012 421.643 132.074C421.956 132.16 422.276 132.23 422.604 132.285C422.94 132.332 423.284 132.355 423.636 132.355C423.854 132.355 424.069 132.336 424.28 132.297C424.491 132.25 424.679 132.184 424.843 132.098C425.015 132.004 425.155 131.887 425.265 131.746C425.374 131.605 425.44 131.434 425.464 131.23C425.487 131.184 425.507 131.137 425.522 131.09C425.538 131.043 425.546 130.988 425.546 130.926C425.546 130.707 425.444 130.512 425.241 130.34C425.046 130.168 424.768 130.031 424.409 129.93C423.807 129.789 423.233 129.66 422.686 129.543C422.14 129.426 421.632 129.301 421.163 129.168C420.702 129.035 420.28 128.883 419.897 128.711C419.522 128.539 419.202 128.328 418.936 128.078C418.679 127.828 418.475 127.527 418.327 127.176C418.186 126.824 418.116 126.398 418.116 125.898C418.116 125.359 418.237 124.879 418.479 124.457C418.729 124.027 419.085 123.668 419.546 123.379C420.007 123.09 420.565 122.871 421.222 122.723C421.878 122.566 422.62 122.488 423.448 122.488C424.932 122.488 426.061 122.668 426.835 123.027C427.616 123.379 428.007 123.84 428.007 124.41C428.007 124.73 427.901 124.977 427.69 125.148C427.479 125.312 427.225 125.394 426.929 125.394C426.772 125.394 426.608 125.367 426.436 125.312C426.272 125.25 426.073 125.184 425.839 125.113C425.604 125.035 425.323 124.969 424.995 124.914C424.675 124.852 424.276 124.82 423.8 124.82C423.44 124.82 423.112 124.836 422.815 124.867C422.526 124.898 422.276 124.953 422.065 125.031C421.862 125.109 421.702 125.215 421.585 125.348C421.475 125.48 421.421 125.648 421.421 125.852Z" fill="black" fill-opacity="0.8"/>
<path d="M433.665 130.152C433.665 130.52 433.712 130.84 433.806 131.113C433.907 131.387 434.044 131.617 434.216 131.805C434.388 131.984 434.587 132.121 434.813 132.215C435.048 132.301 435.298 132.344 435.563 132.344C435.876 132.344 436.177 132.297 436.466 132.203C436.755 132.109 437.009 131.965 437.228 131.77C437.454 131.574 437.634 131.328 437.767 131.031C437.899 130.734 437.966 130.387 437.966 129.988V125.02C437.966 124.277 438.099 123.707 438.364 123.309C438.638 122.91 439.103 122.711 439.759 122.711C440.454 122.711 440.95 122.91 441.247 123.309C441.552 123.707 441.704 124.277 441.704 125.02V132.191C441.704 132.934 441.552 133.504 441.247 133.902C440.95 134.301 440.454 134.5 439.759 134.5C439.103 134.5 438.638 134.301 438.364 133.902C438.099 133.504 437.966 132.934 437.966 132.191C437.802 132.551 437.587 132.879 437.321 133.176C437.063 133.473 436.759 133.731 436.407 133.949C436.063 134.16 435.681 134.324 435.259 134.441C434.845 134.559 434.395 134.617 433.911 134.617C433.388 134.617 432.884 134.527 432.399 134.348C431.923 134.16 431.501 133.887 431.134 133.527C430.767 133.16 430.474 132.707 430.255 132.168C430.036 131.629 429.927 131 429.927 130.281V125.02C429.927 124.277 430.06 123.707 430.325 123.309C430.599 122.91 431.063 122.711 431.72 122.711C432.415 122.711 432.911 122.91 433.208 123.309C433.513 123.707 433.665 124.277 433.665 125.02V130.152Z" fill="black" fill-opacity="0.8"/>
<path d="M443.401 125.02C443.401 124.277 443.534 123.707 443.8 123.309C444.073 122.91 444.538 122.711 445.194 122.711C445.89 122.711 446.386 122.91 446.683 123.309C446.987 123.707 447.14 124.277 447.14 125.02C447.296 124.645 447.507 124.305 447.773 124C448.046 123.688 448.355 123.422 448.698 123.203C449.05 122.984 449.429 122.816 449.835 122.699C450.241 122.574 450.663 122.512 451.101 122.512C451.507 122.512 451.905 122.566 452.296 122.676C452.694 122.777 453.062 122.945 453.398 123.18C453.741 123.406 454.042 123.695 454.3 124.047C454.558 124.398 454.757 124.82 454.898 125.313C455.14 124.789 455.425 124.348 455.753 123.988C456.081 123.629 456.437 123.34 456.819 123.121C457.202 122.902 457.601 122.746 458.015 122.652C458.437 122.559 458.858 122.512 459.28 122.512C459.78 122.512 460.257 122.602 460.71 122.781C461.171 122.961 461.573 123.234 461.917 123.602C462.269 123.961 462.546 124.418 462.749 124.973C462.96 125.52 463.065 126.16 463.065 126.895V132.191C463.065 132.934 462.913 133.504 462.608 133.902C462.312 134.301 461.815 134.5 461.12 134.5C460.464 134.5 459.999 134.301 459.726 133.902C459.46 133.504 459.327 132.934 459.327 132.191V127.059C459.327 126.707 459.28 126.395 459.187 126.121C459.093 125.84 458.96 125.606 458.788 125.418C458.624 125.223 458.429 125.078 458.202 124.984C457.976 124.883 457.733 124.832 457.476 124.832C457.155 124.832 456.851 124.883 456.562 124.984C456.273 125.086 456.019 125.242 455.8 125.453C455.589 125.664 455.417 125.934 455.284 126.262C455.159 126.59 455.097 126.984 455.097 127.445V132.191C455.097 132.934 454.944 133.504 454.64 133.902C454.343 134.301 453.847 134.5 453.151 134.5C452.495 134.5 452.03 134.301 451.757 133.902C451.491 133.504 451.358 132.934 451.358 132.191V127.281C451.358 126.477 451.19 125.867 450.855 125.453C450.526 125.039 450.077 124.832 449.507 124.832C449.171 124.832 448.858 124.887 448.569 124.996C448.28 125.106 448.03 125.266 447.819 125.477C447.608 125.688 447.44 125.949 447.315 126.262C447.198 126.574 447.14 126.934 447.14 127.34V132.191C447.14 132.934 446.987 133.504 446.683 133.902C446.386 134.301 445.89 134.5 445.194 134.5C444.538 134.5 444.073 134.301 443.8 133.902C443.534 133.504 443.401 132.934 443.401 132.191V125.02Z" fill="black" fill-opacity="0.8"/>
<path d="M328.6 132.5C325.286 132.5 322.6 129.814 322.6 126.5C322.6 123.186 325.286 120.5 328.6 120.5C331.914 120.5 334.6 123.186 334.6 126.5C334.6 129.814 331.914 132.5 328.6 132.5Z" fill="black" fill-opacity="0.5"/>
<path d="M316.976 128.55C315.237 128.856 314.046 130.536 314.713 132.171C315.645 134.453 317.132 136.486 319.059 138.075C321.815 140.346 325.291 141.56 328.862 141.498C332.433 141.436 335.864 140.101 338.539 137.734C340.41 136.079 341.825 133.996 342.677 131.682C343.287 130.026 342.037 128.389 340.288 128.143C338.54 127.897 336.97 129.17 336.107 130.71C335.639 131.544 335.031 132.302 334.303 132.946C332.768 134.304 330.799 135.069 328.75 135.105C326.701 135.141 324.707 134.444 323.126 133.141C322.376 132.523 321.742 131.787 321.245 130.969C320.328 129.46 318.715 128.243 316.976 128.55Z" fill="black" fill-opacity="0.5"/>
<path d="M343.484 128.375C343.561 127.76 343.6 127.135 343.6 126.5C343.6 118.216 336.884 111.5 328.6 111.5C320.316 111.5 313.6 118.216 313.6 126.5C313.6 127.315 313.665 128.114 313.79 128.894C314.479 127.951 315.554 127.277 316.716 127.072C317.972 126.851 319.115 127.156 320.08 127.725C320.023 127.325 319.994 126.916 319.994 126.5C319.994 121.747 323.847 117.894 328.6 117.894C333.353 117.894 337.206 121.747 337.206 126.5C337.206 126.813 337.19 127.123 337.157 127.428C338.102 126.824 339.233 126.48 340.497 126.657C341.665 126.821 342.763 127.456 343.484 128.375Z" fill="black" fill-opacity="0.7"/>
<g clip-path="url(#clip0_2_985)">
<path d="M591.06 134.138H603.012V130.538H595.308V116.978H591.06V134.138Z" fill="black" fill-opacity="0.8"/>
<path d="M610.093 131.738C608.389 131.738 607.501 130.25 607.501 128.018C607.501 125.786 608.389 124.274 610.093 124.274C611.797 124.274 612.709 125.786 612.709 128.018C612.709 130.25 611.797 131.738 610.093 131.738ZM610.117 134.522C614.077 134.522 616.669 131.714 616.669 128.018C616.669 124.322 614.077 121.514 610.117 121.514C606.181 121.514 603.541 124.322 603.541 128.018C603.541 131.714 606.181 134.522 610.117 134.522Z" fill="black" fill-opacity="0.8"/>
<path d="M623.524 138.386C625.348 138.386 626.956 137.978 628.036 137.018C629.02 136.13 629.668 134.786 629.668 132.938V121.85H625.924V123.17H625.876C625.156 122.138 624.052 121.49 622.42 121.49C619.372 121.49 617.26 124.034 617.26 127.634C617.26 131.402 619.828 133.466 622.588 133.466C624.076 133.466 625.012 132.866 625.732 132.05H625.828V133.274C625.828 134.762 625.132 135.626 623.476 135.626C622.18 135.626 621.532 135.074 621.316 134.426H617.524C617.908 136.994 620.14 138.386 623.524 138.386ZM623.5 130.562C622.036 130.562 621.076 129.362 621.076 127.514C621.076 125.642 622.036 124.442 623.5 124.442C625.132 124.442 625.996 125.834 625.996 127.49C625.996 129.218 625.204 130.562 623.5 130.562Z" fill="black" fill-opacity="0.8"/>
<path d="M637.366 131.738C635.662 131.738 634.774 130.25 634.774 128.018C634.774 125.786 635.662 124.274 637.366 124.274C639.07 124.274 639.982 125.786 639.982 128.018C639.982 130.25 639.07 131.738 637.366 131.738ZM637.39 134.522C641.35 134.522 643.942 131.714 643.942 128.018C643.942 124.322 641.35 121.514 637.39 121.514C633.454 121.514 630.814 124.322 630.814 128.018C630.814 131.714 633.454 134.522 637.39 134.522Z" fill="black" fill-opacity="0.8"/>
<path d="M645.084 134.138H648.996V121.85H645.084V134.138ZM645.084 120.146H648.996V116.978H645.084V120.146Z" fill="black" fill-opacity="0.8"/>
<path d="M650.694 138.194H654.606V132.866H654.654C655.422 133.898 656.55 134.522 658.134 134.522C661.35 134.522 663.486 131.978 663.486 127.994C663.486 124.298 661.494 121.49 658.23 121.49C656.55 121.49 655.35 122.234 654.51 123.338H654.438V121.85H650.694V138.194ZM657.126 131.498C655.446 131.498 654.486 130.13 654.486 128.138C654.486 126.146 655.35 124.634 657.054 124.634C658.734 124.634 659.526 126.026 659.526 128.138C659.526 130.226 658.614 131.498 657.126 131.498Z" fill="black" fill-opacity="0.8"/>
<path d="M669.855 134.522C673.071 134.522 675.447 133.13 675.447 130.442C675.447 127.298 672.903 126.746 670.743 126.386C669.183 126.098 667.791 125.978 667.791 125.114C667.791 124.346 668.535 123.986 669.495 123.986C670.575 123.986 671.319 124.322 671.463 125.426H675.063C674.871 123.002 672.999 121.49 669.519 121.49C666.615 121.49 664.215 122.834 664.215 125.426C664.215 128.306 666.495 128.882 668.631 129.242C670.263 129.53 671.751 129.65 671.751 130.754C671.751 131.546 671.007 131.978 669.831 131.978C668.535 131.978 667.719 131.378 667.575 130.154H663.879C663.999 132.866 666.255 134.522 669.855 134.522Z" fill="black" fill-opacity="0.8"/>
<path d="M680.761 134.498C682.465 134.498 683.545 133.826 684.433 132.626H684.505V134.138H688.249V121.85H684.337V128.714C684.337 130.178 683.521 131.186 682.177 131.186C680.929 131.186 680.329 130.442 680.329 129.098V121.85H676.441V129.914C676.441 132.65 677.929 134.498 680.761 134.498Z" fill="black" fill-opacity="0.8"/>
<path d="M689.95 134.138H693.862V127.25C693.862 125.786 694.582 124.754 695.806 124.754C696.982 124.754 697.534 125.522 697.534 126.842V134.138H701.446V127.25C701.446 125.786 702.142 124.754 703.39 124.754C704.566 124.754 705.118 125.522 705.118 126.842V134.138H709.03V126.146C709.03 123.386 707.638 121.49 704.854 121.49C703.27 121.49 701.95 122.162 700.99 123.65H700.942C700.318 122.33 699.094 121.49 697.486 121.49C695.71 121.49 694.534 122.33 693.766 123.602H693.694V121.85H689.95V134.138Z" fill="black" fill-opacity="0.8"/>
<path fill-rule="evenodd" clip-rule="evenodd" d="M559.884 146.138C570.93 146.138 579.884 137.184 579.884 126.138C579.884 115.092 570.93 106.138 559.884 106.138C548.838 106.138 539.884 115.092 539.884 126.138C539.884 137.184 548.838 146.138 559.884 146.138ZM566.123 115.455C566.427 114.376 565.38 113.738 564.424 114.419L551.077 123.928C550.04 124.666 550.203 126.138 551.322 126.138H554.837V126.111H561.687L556.105 128.08L553.645 136.821C553.341 137.9 554.388 138.538 555.344 137.857L568.691 128.349C569.728 127.61 569.565 126.138 568.446 126.138H563.116L566.123 115.455Z" fill="black" fill-opacity="0.5"/>
</g>
<path d="M813.01 123.219C816.148 123.219 816.854 124.582 816.854 126.282C816.854 128.084 816 129.375 813.023 129.375C810.065 129.375 809.21 128.159 809.21 126.282C809.21 124.435 810.142 123.219 813.01 123.219Z" fill="black" fill-opacity="0.8"/>
<path d="M845.804 123.219C848.942 123.219 849.648 124.582 849.648 126.282C849.648 128.084 848.793 129.375 845.817 129.375C842.86 129.375 842.004 128.159 842.004 126.282C842.004 124.435 842.936 123.219 845.804 123.219Z" fill="black" fill-opacity="0.8"/>
<path fill-rule="evenodd" clip-rule="evenodd" d="M785.227 144V108.547H943.805V144H785.227ZM860.805 142H941.805V110.547H860.805V142ZM813.025 132.393C818.596 132.393 820.938 129.99 820.938 126.237C820.938 122.423 818.3 120.156 813.025 120.156C807.831 120.156 805.097 122.618 805.097 126.237C805.097 130.321 807.965 132.393 813.025 132.393ZM793.656 120.426V132.213H804.9V129.074H797.724V120.426H793.656ZM833.522 132.213L833.417 131.071C832.056 132.042 830.4 132.509 828.732 132.393C826.225 132.393 824.137 131.642 822.966 130.126C822.194 129.019 821.804 127.69 821.855 126.342C821.811 125.022 822.215 123.725 823 122.663C824.185 121.192 826.333 120.216 829.531 120.216C833.21 120.216 835.372 121.342 836.302 123.234C836.502 123.679 836.619 124.157 836.648 124.645H832.756C832.658 124.349 832.475 124.088 832.231 123.894C831.456 123.38 830.53 123.142 829.603 123.219C829.059 123.153 828.508 123.203 827.985 123.366C827.462 123.529 826.98 123.802 826.57 124.165C826.105 124.802 825.886 125.586 825.955 126.372C825.901 127.122 826.102 127.868 826.525 128.489C826.938 128.874 827.43 129.166 827.966 129.345C828.503 129.523 829.071 129.585 829.633 129.525C830.749 129.616 831.858 129.271 832.726 128.564C832.912 128.331 833.041 128.056 833.101 127.764H828.913V125.231H836.75V132.213H833.522ZM845.819 132.393C851.389 132.393 853.732 129.99 853.732 126.237C853.732 122.423 851.09 120.156 845.819 120.156C840.625 120.156 837.891 122.618 837.891 126.237C837.891 130.321 840.759 132.393 845.819 132.393Z" fill="black" fill-opacity="0.8"/>
<path d="M867.657 132.168V120.381H870.557V132.168H867.657Z" fill="black" fill-opacity="0.8"/>
<path d="M885.449 127.243C884.714 128.204 883.449 128.643 881.666 128.654C881.29 128.654 876.305 128.639 876.305 128.639V132.168H873.467V120.381H881.667C882.324 120.312 882.989 120.381 883.617 120.586C884.246 120.79 884.824 121.124 885.315 121.567C885.963 122.411 886.278 123.464 886.201 124.525C886.267 125.49 886.002 126.449 885.449 127.243ZM883.122 123.4C882.822 122.95 882.175 122.7 881.08 122.7H876.29V126.288H881.049C882.22 126.288 882.837 126.048 883.122 125.582C883.291 125.254 883.364 124.884 883.332 124.516C883.357 124.132 883.285 123.748 883.122 123.4Z" fill="black" fill-opacity="0.8"/>
<path d="M894.564 132.348C889.218 132.348 887.582 130.348 887.582 128.369H890.615C890.615 129.345 891.951 130.081 894.699 130.081C897.431 130.081 898.152 129.6 898.152 128.819C898.152 127.948 897.612 127.678 895.074 127.393C894.574 127.348 893.213 127.183 892.702 127.108C889.102 126.702 887.716 125.636 887.716 123.729C887.716 121.717 889.744 120.201 894.143 120.201C898.918 120.201 900.75 122.078 900.75 124.03H897.75C897.75 123.039 896.624 122.468 893.966 122.468C891.233 122.468 890.648 122.843 890.648 123.579C890.648 124.345 891.248 124.585 894.148 124.93C894.809 125.021 896.28 125.186 896.685 125.23C899.749 125.545 901.13 126.656 901.13 128.623C901.125 130.966 899.023 132.348 894.564 132.348Z" fill="black" fill-opacity="0.8"/>
<path d="M909.67 132.333C905.752 132.333 903.199 130.786 903.199 127.533V120.381H906.066V127.573C906.066 129.06 907.283 130.05 909.79 130.05C912.057 130.05 913.409 129.12 913.409 127.573V120.381H916.247V127.8C916.247 130.757 913.874 132.333 909.67 132.333Z" fill="black" fill-opacity="0.8"/>
<path d="M931.787 132.168V124.3L928.108 132.168H925.316L921.742 124.3V132.168H919.042V120.381H922.7L926.754 129.36L930.898 120.381H934.498V132.168H931.787Z" fill="black" fill-opacity="0.8"/>
<path d="M1021.99 130.517H1024.82V144.407H1021.99V130.517Z" fill="black" fill-opacity="0.8"/>
<path d="M1026.46 139.648C1026.46 138.65 1026.75 137.674 1027.31 136.844C1027.86 136.013 1028.65 135.365 1029.57 134.982C1030.49 134.599 1031.5 134.498 1032.48 134.691C1033.46 134.885 1034.36 135.364 1035.07 136.069C1035.77 136.774 1036.25 137.673 1036.45 138.651C1036.64 139.629 1036.54 140.644 1036.16 141.566C1035.78 142.488 1035.14 143.276 1034.31 143.83C1033.48 144.385 1032.5 144.681 1031.5 144.681C1030.84 144.688 1030.18 144.564 1029.57 144.313C1028.95 144.063 1028.39 143.693 1027.92 143.224C1027.45 142.755 1027.08 142.198 1026.83 141.583C1026.58 140.969 1026.45 140.311 1026.46 139.648ZM1033.69 139.648C1033.68 139.217 1033.55 138.799 1033.3 138.446C1033.05 138.094 1032.7 137.822 1032.3 137.665C1031.9 137.507 1031.46 137.472 1031.04 137.563C1030.62 137.654 1030.24 137.867 1029.94 138.175C1029.63 138.484 1029.43 138.874 1029.35 139.297C1029.27 139.721 1029.32 140.158 1029.49 140.555C1029.65 140.952 1029.93 141.291 1030.29 141.53C1030.65 141.768 1031.07 141.895 1031.5 141.895C1031.8 141.903 1032.09 141.851 1032.37 141.74C1032.64 141.629 1032.89 141.463 1033.09 141.252C1033.3 141.04 1033.46 140.789 1033.56 140.513C1033.66 140.237 1033.71 139.942 1033.69 139.648Z" fill="black" fill-opacity="0.8"/>
<path d="M1047.93 134.889V143.935C1047.93 147.136 1045.43 148.487 1042.9 148.487C1042.01 148.553 1041.12 148.373 1040.33 147.966C1039.53 147.56 1038.86 146.943 1038.4 146.182L1040.83 144.775C1041.03 145.165 1041.33 145.488 1041.71 145.702C1042.09 145.915 1042.52 146.011 1042.96 145.975C1043.24 146.022 1043.54 146.004 1043.81 145.92C1044.09 145.837 1044.34 145.691 1044.56 145.494C1044.77 145.297 1044.93 145.054 1045.03 144.784C1045.14 144.513 1045.18 144.223 1045.15 143.935V143.057C1044.82 143.467 1044.39 143.792 1043.91 144.007C1043.43 144.222 1042.9 144.32 1042.37 144.294C1041.09 144.294 1039.86 143.784 1038.95 142.878C1038.05 141.971 1037.54 140.741 1037.54 139.459C1037.54 138.177 1038.05 136.947 1038.95 136.04C1039.86 135.134 1041.09 134.624 1042.37 134.624C1042.9 134.6 1043.43 134.699 1043.91 134.914C1044.39 135.129 1044.81 135.453 1045.15 135.861V134.917L1047.93 134.889ZM1045.15 139.459C1045.17 139 1045.05 138.545 1044.81 138.154C1044.57 137.763 1044.21 137.453 1043.79 137.264C1043.37 137.075 1042.91 137.016 1042.46 137.094C1042 137.172 1041.58 137.383 1041.25 137.702C1040.92 138.02 1040.69 138.43 1040.59 138.879C1040.5 139.328 1040.54 139.797 1040.71 140.223C1040.88 140.65 1041.17 141.015 1041.56 141.273C1041.94 141.53 1042.39 141.668 1042.84 141.669C1043.14 141.69 1043.45 141.648 1043.73 141.546C1044.01 141.443 1044.27 141.283 1044.49 141.075C1044.7 140.867 1044.88 140.615 1044.99 140.337C1045.1 140.059 1045.16 139.76 1045.15 139.459Z" fill="black" fill-opacity="0.8"/>
<path d="M1049.57 139.648C1049.57 138.65 1049.86 137.674 1050.41 136.844C1050.97 136.013 1051.75 135.365 1052.67 134.982C1053.6 134.599 1054.61 134.498 1055.59 134.691C1056.57 134.885 1057.47 135.364 1058.17 136.069C1058.88 136.774 1059.36 137.673 1059.56 138.651C1059.75 139.629 1059.65 140.644 1059.27 141.566C1058.89 142.488 1058.24 143.276 1057.41 143.83C1056.58 144.385 1055.61 144.681 1054.61 144.681C1053.95 144.688 1053.29 144.564 1052.67 144.313C1052.06 144.063 1051.5 143.693 1051.03 143.224C1050.56 142.755 1050.19 142.198 1049.94 141.583C1049.69 140.969 1049.56 140.311 1049.57 139.648ZM1056.8 139.648C1056.79 139.217 1056.65 138.799 1056.41 138.446C1056.16 138.094 1055.81 137.822 1055.41 137.665C1055.01 137.507 1054.57 137.472 1054.15 137.563C1053.73 137.654 1053.34 137.867 1053.04 138.175C1052.74 138.484 1052.54 138.874 1052.46 139.297C1052.38 139.721 1052.43 140.158 1052.59 140.555C1052.76 140.952 1053.04 141.291 1053.4 141.53C1053.76 141.768 1054.18 141.895 1054.61 141.895C1054.9 141.901 1055.2 141.846 1055.47 141.734C1055.74 141.622 1055.98 141.455 1056.19 141.244C1056.39 141.034 1056.55 140.783 1056.65 140.508C1056.75 140.234 1056.8 139.941 1056.78 139.648H1056.8Z" fill="black" fill-opacity="0.8"/>
<path d="M1060.97 132.339C1060.97 131.999 1061.07 131.667 1061.26 131.384C1061.44 131.102 1061.71 130.882 1062.03 130.751C1062.34 130.621 1062.69 130.587 1063.02 130.654C1063.35 130.72 1063.66 130.884 1063.9 131.124C1064.14 131.364 1064.3 131.671 1064.37 132.004C1064.44 132.337 1064.4 132.683 1064.27 132.997C1064.14 133.311 1063.92 133.579 1063.64 133.768C1063.36 133.957 1063.02 134.058 1062.68 134.058C1062.23 134.055 1061.79 133.874 1061.47 133.552C1061.15 133.23 1060.97 132.794 1060.97 132.339ZM1061.26 134.889H1064.09V144.407H1061.26V134.889Z" fill="black" fill-opacity="0.8"/>
<path d="M1076.44 139.648C1076.48 140.277 1076.39 140.907 1076.18 141.501C1075.97 142.095 1075.64 142.642 1075.22 143.11C1074.8 143.577 1074.29 143.957 1073.72 144.227C1073.15 144.497 1072.53 144.651 1071.9 144.681C1071.37 144.706 1070.84 144.616 1070.36 144.415C1069.87 144.214 1069.43 143.909 1069.07 143.52V148.241H1066.24V134.889H1069.07V135.786C1069.43 135.397 1069.87 135.091 1070.36 134.89C1070.84 134.69 1071.37 134.599 1071.9 134.624C1072.53 134.654 1073.15 134.809 1073.71 135.078C1074.28 135.347 1074.79 135.726 1075.22 136.192C1075.64 136.659 1075.96 137.205 1076.17 137.798C1076.38 138.391 1076.48 139.02 1076.44 139.648ZM1073.61 139.648C1073.6 139.205 1073.46 138.775 1073.2 138.411C1072.95 138.047 1072.6 137.765 1072.19 137.601C1071.77 137.436 1071.32 137.396 1070.89 137.485C1070.45 137.575 1070.06 137.789 1069.74 138.103C1069.43 138.416 1069.21 138.815 1069.12 139.249C1069.04 139.683 1069.08 140.134 1069.24 140.546C1069.4 140.958 1069.69 141.312 1070.05 141.565C1070.41 141.819 1070.84 141.96 1071.29 141.971C1071.6 141.991 1071.91 141.944 1072.2 141.834C1072.49 141.724 1072.75 141.553 1072.97 141.333C1073.19 141.113 1073.35 140.849 1073.46 140.558C1073.57 140.267 1073.61 139.957 1073.59 139.648H1073.61Z" fill="black" fill-opacity="0.8"/>
<path d="M1085.26 141.556C1085.26 143.746 1083.37 144.681 1081.3 144.681C1080.47 144.755 1079.63 144.578 1078.91 144.174C1078.18 143.77 1077.59 143.158 1077.21 142.415L1079.68 141.008C1079.78 141.351 1080 141.65 1080.29 141.855C1080.59 142.059 1080.94 142.157 1081.3 142.132C1081.99 142.132 1082.33 141.914 1082.33 141.537C1082.33 140.488 1077.6 141.046 1077.6 137.759C1077.6 135.682 1079.36 134.634 1081.38 134.634C1082.13 134.611 1082.87 134.788 1083.52 135.147C1084.17 135.506 1084.72 136.033 1085.1 136.673L1082.62 137.977C1082.51 137.727 1082.33 137.515 1082.1 137.366C1081.87 137.217 1081.61 137.137 1081.33 137.136C1080.84 137.136 1080.54 137.325 1080.54 137.674C1080.58 138.76 1085.26 138.033 1085.26 141.556Z" fill="black" fill-opacity="0.8"/>
<path d="M1095.69 134.889V144.407H1092.86V143.52C1092.53 143.914 1092.11 144.225 1091.63 144.427C1091.16 144.629 1090.65 144.716 1090.14 144.681C1088.25 144.681 1086.58 143.312 1086.58 140.734V134.889H1089.41V140.318C1089.38 140.55 1089.41 140.784 1089.49 141.004C1089.56 141.223 1089.69 141.423 1089.85 141.589C1090.02 141.754 1090.21 141.881 1090.43 141.96C1090.65 142.039 1090.89 142.069 1091.12 142.047C1092.16 142.047 1092.88 141.442 1092.88 140.092V134.889H1095.69Z" fill="black" fill-opacity="0.8"/>
<path d="M1112.06 138.571V144.407H1109.23V138.817C1109.23 137.872 1108.77 137.249 1107.86 137.249C1106.95 137.249 1106.37 137.92 1106.37 139.043V144.407H1103.54V138.817C1103.54 137.872 1103.08 137.249 1102.17 137.249C1101.25 137.249 1100.68 137.92 1100.68 139.043V144.407H1097.85V134.888H1100.68V135.767C1100.98 135.379 1101.37 135.071 1101.81 134.872C1102.26 134.672 1102.75 134.587 1103.23 134.624C1103.72 134.6 1104.21 134.704 1104.64 134.924C1105.08 135.144 1105.45 135.473 1105.73 135.88C1106.04 135.455 1106.46 135.116 1106.94 134.897C1107.43 134.677 1107.96 134.583 1108.48 134.624C1110.64 134.624 1112.06 136.192 1112.06 138.571Z" fill="black" fill-opacity="0.8"/>
<path d="M1114.48 134.832C1115.65 134.832 1116.59 133.885 1116.59 132.717C1116.59 131.549 1115.65 130.602 1114.48 130.602C1113.31 130.602 1112.36 131.549 1112.36 132.717C1112.36 133.885 1113.31 134.832 1114.48 134.832Z" fill="black" fill-opacity="0.8"/>
<path d="M1054.04 123.312C1059.52 123.312 1063.95 118.877 1063.95 113.406C1063.95 107.935 1059.52 103.5 1054.04 103.5C1048.57 103.5 1044.14 107.935 1044.14 113.406C1044.14 118.877 1048.57 123.312 1054.04 123.312Z" fill="black" fill-opacity="0.5"/>
<path d="M1076.19 123.312C1081.66 123.312 1086.09 118.877 1086.09 113.406C1086.09 107.935 1081.66 103.5 1076.19 103.5C1070.72 103.5 1066.28 107.935 1066.28 113.406C1066.28 118.877 1070.72 123.312 1076.19 123.312Z" fill="black" fill-opacity="0.5"/>
<path d="M1041.81 103.5H1022V123.302H1041.81V103.5Z" fill="black" fill-opacity="0.5"/>
<path fill-rule="evenodd" clip-rule="evenodd" d="M1257.18 106.557C1253.62 106.557 1250.73 109.443 1250.73 113.002V114.256C1248.59 113.696 1246.22 114.255 1244.54 115.933C1242.03 118.45 1242.03 122.531 1244.54 125.048L1245.43 125.934C1243.52 127.053 1242.24 129.126 1242.24 131.499C1242.24 135.059 1245.12 137.944 1248.68 137.944H1249.93C1249.37 140.086 1249.93 142.459 1251.61 144.137C1254.13 146.654 1258.21 146.654 1260.73 144.137L1263.37 141.493C1265.7 139.161 1266.79 136.057 1266.64 133.003L1270.7 137.067C1273.22 139.584 1277.3 139.584 1279.82 137.067C1282.33 134.55 1282.33 130.469 1279.82 127.952L1278.93 127.066C1280.84 125.948 1282.12 123.874 1282.12 121.501C1282.12 117.942 1279.24 115.056 1275.68 115.056H1274.42C1274.98 112.915 1274.42 110.541 1272.75 108.863C1270.23 106.346 1266.15 106.346 1263.63 108.863L1260.99 111.507C1258.66 113.839 1257.57 116.943 1257.72 119.997L1253.66 115.933C1253.65 115.923 1253.64 115.913 1253.63 115.903V113.002C1253.63 111.039 1255.22 109.448 1257.18 109.448C1258.77 109.448 1260.12 110.498 1260.57 111.944C1260.71 111.795 1260.84 111.65 1260.99 111.507L1262.74 109.75C1261.63 107.84 1259.55 106.557 1257.18 106.557ZM1272.78 117.947C1272.77 117.957 1272.76 117.968 1272.75 117.978L1268.68 122.041C1271.55 121.897 1274.46 122.848 1276.74 124.894C1278.18 124.444 1279.23 123.095 1279.23 121.501C1279.23 119.538 1277.64 117.947 1275.68 117.947H1272.78ZM1251.58 135.053C1251.59 135.043 1251.6 135.033 1251.61 135.022L1255.68 130.959C1252.81 131.103 1249.9 130.152 1247.62 128.106C1246.18 128.556 1245.13 129.905 1245.13 131.499C1245.13 133.462 1246.72 135.053 1248.68 135.053H1251.58ZM1267.18 146.443C1264.81 146.443 1262.73 145.16 1261.61 143.251L1263.37 141.493C1263.51 141.35 1263.65 141.205 1263.78 141.056C1264.24 142.502 1265.58 143.552 1267.18 143.552C1269.14 143.552 1270.73 141.961 1270.73 139.998V137.097C1271.56 137.919 1272.57 138.468 1273.62 138.745V139.998C1273.62 143.558 1270.74 146.443 1267.18 146.443ZM1270.7 110.908C1269.31 109.52 1267.06 109.52 1265.68 110.908L1263.03 113.551C1260.08 116.508 1259.81 121.139 1262.24 124.394L1270.7 115.933C1272.09 114.545 1272.09 112.295 1270.7 110.908ZM1277.77 135.022C1279.16 133.635 1279.16 131.385 1277.77 129.997L1275.13 127.353C1272.17 124.396 1267.54 124.132 1264.28 126.561L1272.75 135.022C1274.13 136.41 1276.38 136.41 1277.77 135.022ZM1258.68 142.092C1257.29 143.48 1255.04 143.48 1253.66 142.092C1252.27 140.705 1252.27 138.455 1253.66 137.067L1262.12 128.606C1264.55 131.862 1264.28 136.492 1261.33 139.449L1258.68 142.092ZM1246.59 117.978C1245.2 119.366 1245.2 121.616 1246.59 123.003L1249.23 125.647C1252.19 128.604 1256.82 128.868 1260.07 126.439L1251.61 117.978C1250.22 116.59 1247.97 116.59 1246.59 117.978Z" fill="black" fill-opacity="0.8"/>
<path d="M1194.53 119.59H1197.69V129.411H1203.12V132.072H1194.53V119.59Z" fill="black" fill-opacity="0.8"/>
<path d="M1208.86 132.339C1207.8 132.339 1206.87 132.149 1206.07 131.768C1205.28 131.375 1204.66 130.839 1204.22 130.161C1203.79 129.47 1203.57 128.679 1203.57 127.786C1203.57 126.893 1203.79 126.107 1204.22 125.429C1204.66 124.738 1205.28 124.203 1206.07 123.822C1206.87 123.429 1207.8 123.232 1208.86 123.232C1209.92 123.232 1210.85 123.429 1211.65 123.822C1212.44 124.203 1213.06 124.738 1213.49 125.429C1213.93 126.107 1214.15 126.893 1214.15 127.786C1214.15 128.679 1213.93 129.47 1213.49 130.161C1213.06 130.839 1212.44 131.375 1211.65 131.768C1210.85 132.149 1209.92 132.339 1208.86 132.339ZM1208.86 129.893C1209.49 129.893 1209.99 129.708 1210.36 129.339C1210.74 128.958 1210.93 128.441 1210.93 127.786C1210.93 127.131 1210.74 126.619 1210.36 126.25C1209.99 125.869 1209.49 125.679 1208.86 125.679C1208.23 125.679 1207.72 125.869 1207.34 126.25C1206.97 126.619 1206.79 127.131 1206.79 127.786C1206.79 128.441 1206.97 128.958 1207.34 129.339C1207.72 129.708 1208.23 129.893 1208.86 129.893Z" fill="black" fill-opacity="0.8"/>
<path d="M1220.05 136.179C1219.48 136.179 1218.9 136.125 1218.32 136.018C1217.75 135.911 1217.25 135.768 1216.83 135.589V133.411C1217.78 133.815 1218.85 134.018 1220.05 134.018C1220.92 134.018 1221.54 133.839 1221.92 133.482C1222.32 133.125 1222.51 132.601 1222.51 131.911V131.393C1222.17 131.691 1221.74 131.923 1221.23 132.089C1220.73 132.256 1220.19 132.339 1219.62 132.339C1218.72 132.339 1217.92 132.149 1217.23 131.768C1216.54 131.387 1216 130.851 1215.6 130.161C1215.22 129.47 1215.03 128.679 1215.03 127.786C1215.03 126.881 1215.22 126.084 1215.6 125.393C1215.98 124.703 1216.52 124.173 1217.21 123.804C1217.9 123.423 1218.69 123.232 1219.58 123.232C1220.81 123.232 1221.82 123.607 1222.62 124.357V123.5H1225.66V131.482C1225.66 132.97 1225.2 134.125 1224.28 134.946C1223.38 135.768 1221.97 136.179 1220.05 136.179ZM1220.41 129.911C1220.89 129.911 1221.33 129.786 1221.71 129.536C1222.09 129.286 1222.36 128.953 1222.51 128.536V127.036C1222.35 126.619 1222.07 126.292 1221.69 126.054C1221.31 125.804 1220.88 125.679 1220.41 125.679C1219.76 125.679 1219.25 125.869 1218.85 126.25C1218.46 126.619 1218.26 127.125 1218.26 127.768C1218.26 128.423 1218.46 128.947 1218.85 129.339C1219.25 129.72 1219.76 129.911 1220.41 129.911Z" fill="black" fill-opacity="0.8"/>
<path d="M1231.74 132.339C1230.68 132.339 1229.75 132.149 1228.95 131.768C1228.16 131.375 1227.54 130.839 1227.1 130.161C1226.67 129.47 1226.45 128.679 1226.45 127.786C1226.45 126.893 1226.67 126.107 1227.1 125.429C1227.54 124.738 1228.16 124.203 1228.95 123.822C1229.75 123.429 1230.68 123.232 1231.74 123.232C1232.8 123.232 1233.73 123.429 1234.52 123.822C1235.32 124.203 1235.94 124.738 1236.36 125.429C1236.8 126.107 1237.02 126.893 1237.02 127.786C1237.02 128.679 1236.8 129.47 1236.36 130.161C1235.94 130.839 1235.32 131.375 1234.52 131.768C1233.73 132.149 1232.8 132.339 1231.74 132.339ZM1231.74 129.893C1232.37 129.893 1232.87 129.708 1233.24 129.339C1233.62 128.958 1233.81 128.441 1233.81 127.786C1233.81 127.131 1233.62 126.619 1233.24 126.25C1232.87 125.869 1232.37 125.679 1231.74 125.679C1231.11 125.679 1230.6 125.869 1230.22 126.25C1229.85 126.619 1229.67 127.131 1229.67 127.786C1229.67 128.441 1229.85 128.958 1230.22 129.339C1230.6 129.708 1231.11 129.893 1231.74 129.893Z" fill="black" fill-opacity="0.8"/>
<path d="M1287.43 119.59H1290.59V132.072H1287.43V119.59Z" fill="black" fill-opacity="0.8"/>
<path d="M1292.19 123.5H1295.23V124.357C1296.03 123.607 1297.04 123.232 1298.26 123.232C1299.16 123.232 1299.95 123.423 1300.64 123.804C1301.33 124.173 1301.87 124.703 1302.25 125.393C1302.63 126.072 1302.82 126.863 1302.82 127.768C1302.82 128.661 1302.63 129.458 1302.25 130.161C1301.87 130.851 1301.33 131.387 1300.64 131.768C1299.96 132.149 1299.17 132.339 1298.26 132.339C1297.69 132.339 1297.15 132.25 1296.62 132.071C1296.11 131.905 1295.68 131.673 1295.34 131.375V135.982H1292.19V123.5ZM1297.44 129.893C1298.09 129.893 1298.6 129.703 1299 129.322C1299.39 128.941 1299.59 128.423 1299.59 127.768C1299.59 127.113 1299.39 126.601 1299 126.232C1298.6 125.851 1298.09 125.661 1297.44 125.661C1296.97 125.661 1296.54 125.786 1296.16 126.036C1295.78 126.274 1295.5 126.601 1295.34 127.018V128.536C1295.5 128.953 1295.78 129.286 1296.16 129.536C1296.54 129.774 1296.97 129.893 1297.44 129.893Z" fill="black" fill-opacity="0.8"/>
<path d="M1307.5 132.339C1306.81 132.339 1306.09 132.268 1305.34 132.125C1304.59 131.994 1304 131.804 1303.56 131.554V129.25C1304.05 129.536 1304.63 129.774 1305.31 129.964C1306 130.143 1306.63 130.232 1307.2 130.232C1307.62 130.232 1307.92 130.202 1308.11 130.143C1308.3 130.083 1308.4 129.964 1308.4 129.786C1308.4 129.643 1308.33 129.53 1308.2 129.447C1308.08 129.351 1307.85 129.256 1307.52 129.161C1307.2 129.054 1306.83 128.941 1306.4 128.822C1305.67 128.607 1305.1 128.387 1304.68 128.161C1304.27 127.935 1303.96 127.649 1303.75 127.304C1303.55 126.959 1303.45 126.524 1303.45 126C1303.45 125.072 1303.81 124.381 1304.54 123.929C1305.28 123.465 1306.28 123.232 1307.56 123.232C1308.18 123.232 1308.83 123.298 1309.5 123.429C1310.19 123.56 1310.71 123.732 1311.06 123.947V126.215C1310.7 125.976 1310.22 125.78 1309.63 125.625C1309.05 125.47 1308.5 125.393 1307.99 125.393C1307.58 125.393 1307.27 125.435 1307.04 125.518C1306.81 125.59 1306.7 125.72 1306.7 125.911C1306.7 126.09 1306.81 126.226 1307.04 126.322C1307.27 126.417 1307.67 126.536 1308.25 126.679C1308.63 126.774 1308.8 126.816 1308.74 126.804C1309.5 127.006 1310.09 127.232 1310.5 127.482C1310.92 127.732 1311.21 128.03 1311.38 128.375C1311.56 128.708 1311.65 129.137 1311.65 129.661C1311.65 130.482 1311.29 131.137 1310.58 131.625C1309.87 132.101 1308.85 132.339 1307.5 132.339Z" fill="black" fill-opacity="0.8"/>
<path d="M1316.34 132.34C1315.16 132.34 1314.27 132.012 1313.68 131.357C1313.09 130.703 1312.8 129.84 1312.8 128.768V123.5H1315.95V128.411C1315.95 129.399 1316.39 129.893 1317.28 129.893C1317.69 129.893 1318.06 129.798 1318.39 129.607C1318.72 129.417 1319 129.137 1319.21 128.768V123.5H1322.36V132.072H1319.32V131.143C1318.95 131.536 1318.5 131.834 1317.98 132.036C1317.46 132.238 1316.91 132.34 1316.34 132.34Z" fill="black" fill-opacity="0.8"/>
<path d="M1323.96 123.5H1326.88V124.429C1327.23 124.048 1327.64 123.756 1328.11 123.554C1328.57 123.34 1329.07 123.232 1329.59 123.232C1330.23 123.232 1330.74 123.328 1331.13 123.518C1331.52 123.709 1331.83 123.994 1332.07 124.375C1332.43 124.018 1332.86 123.738 1333.38 123.536C1333.89 123.334 1334.41 123.232 1334.93 123.232C1336.06 123.232 1336.86 123.524 1337.34 124.107C1337.82 124.679 1338.05 125.506 1338.05 126.589V132.071H1335.05V127.036C1335.05 126.56 1334.96 126.215 1334.79 126C1334.61 125.786 1334.31 125.679 1333.89 125.679C1333.36 125.679 1332.92 125.869 1332.59 126.25C1332.6 126.453 1332.61 126.762 1332.61 127.179V132.071H1329.61V126.911C1329.61 126.47 1329.53 126.155 1329.38 125.965C1329.22 125.774 1328.95 125.679 1328.55 125.679C1327.95 125.679 1327.42 126.018 1326.98 126.697V132.071H1323.96V123.5Z" fill="black" fill-opacity="0.8"/>
<defs>
<clipPath id="clip0_2_985">
<rect width="170" height="41" fill="white" transform="translate(539.2 106)"/>
</clipPath>
</defs>
</svg>
